<?xml version="1.0" encoding="UTF-8"?>
<svg xmlns="http://www.w3.org/2000/svg" >

  <symbol id="icon-shuffle" viewBox="0 0 32 28">
    <path d="M20.767 20.44a.81.81 0 00.49-.183l2.58-2.174c.316-.266.316-.681 0-.955l-2.58-2.183a.81.81 0 00-.49-.183c-.415 0-.673.258-.673.673v1.245h-1.162c-.739 0-1.195-.233-1.718-.847l-1.527-1.801 1.527-1.81c.54-.63.946-.847 1.677-.847h1.203v1.279c0 .407.258.664.673.664a.801.801 0 00.49-.174l2.58-2.175c.316-.266.316-.69 0-.955l-2.58-2.183a.761.761 0 00-.49-.183c-.415 0-.673.258-.673.665v1.386h-1.212c-1.228 0-1.992.34-2.863 1.386l-1.412 1.668-1.469-1.751c-.805-.946-1.569-1.303-2.747-1.303H8.896c-.53 0-.896.348-.896.838s.365.838.896.838h1.437c.697 0 1.162.225 1.685.847l1.519 1.801-1.52 1.81c-.53.623-.954.847-1.643.847H8.896c-.53 0-.896.348-.896.838s.365.838.896.838h1.536c1.179 0 1.901-.356 2.706-1.303l1.478-1.751 1.444 1.718c.822.98 1.627 1.336 2.822 1.336h1.212v1.412c0 .415.258.672.673.672z" fill="currentColor"/>
  </symbol>

  <symbol id="icon-previous" viewBox="0 0 32 28">
    <path d="M18.14 20.68c.365 0 .672-.107 1.038-.323l8.508-4.997c.623-.365.938-.814.938-1.37 0-.564-.307-.988-.938-1.361l-8.508-4.997c-.366-.216-.68-.324-1.046-.324-.73 0-1.337.556-1.337 1.569v4.773c-.108-.399-.406-.73-.904-1.021L7.382 7.632c-.357-.216-.672-.324-1.037-.324-.73 0-1.345.556-1.345 1.569v10.235c0 1.013.614 1.569 1.345 1.569.365 0 .68-.108 1.037-.324l8.509-4.997c.49-.29.796-.631.904-1.038v4.79c0 1.013.615 1.569 1.345 1.569z" fill="currentColor"/>
  </symbol>

  <symbol id="icon-play" viewBox="0 0 32 28">
    <path d="M10.345 23.287c.415 0 .763-.15 1.22-.407l12.742-7.404c.838-.481 1.178-.855 1.178-1.46 0-.599-.34-.972-1.178-1.462L11.565 5.158c-.457-.265-.805-.407-1.22-.407-.789 0-1.345.606-1.345 1.57V21.71c0 .971.556 1.577 1.345 1.577z" fill="currentColor"/>
  </symbol>

  <symbol id="icon-next" viewBox="0 0 32 28">
    <path d="M18.14 20.68c.365 0 .672-.107 1.038-.323l8.508-4.997c.623-.365.938-.814.938-1.37 0-.564-.307-.988-.938-1.361l-8.508-4.997c-.366-.216-.68-.324-1.046-.324-.73 0-1.337.556-1.337 1.569v4.773c-.108-.399-.406-.73-.904-1.021L7.382 7.632c-.357-.216-.672-.324-1.037-.324-.73 0-1.345.556-1.345 1.569v10.235c0 1.013.614 1.569 1.345 1.569.365 0 .68-.108 1.037-.324l8.509-4.997c.49-.29.796-.631.904-1.038v4.79c0 1.013.615 1.569 1.345 1.569z" fill="currentColor"/>
  </symbol>

  <symbol id="icon-repeat" viewBox="0 0 32 28">
    <path d="M9.545 14.272a.856.856 0 00.863-.855v-.448c0-1.004.706-1.677 1.785-1.677h5.005v1.362c0 .407.258.664.673.664a.745.745 0 00.49-.183l2.581-2.166c.316-.266.316-.69 0-.955l-2.581-2.183a.745.745 0 00-.49-.183c-.415 0-.672.258-.672.665v1.294h-4.881c-2.217 0-3.628 1.254-3.628 3.213v.597c0 .474.382.855.855.855zm4.864 5.952c.407 0 .664-.257.664-.664v-1.303h4.881c2.225 0 3.628-1.254 3.628-3.213v-.597a.854.854 0 10-1.71 0v.448c0 1.004-.714 1.677-1.793 1.677h-5.006v-1.353c0-.407-.257-.664-.664-.664a.767.767 0 00-.498.182l-2.573 2.175c-.324.257-.315.68 0 .946l2.573 2.192a.807.807 0 00.498.174z" fill="currentColor"/>
  </symbol>

  <symbol id="apple-music-note" viewBox="0 0 38 48">
    <path d="M36.15 0c-.18.02-1.76.3-1.95.33l-19.7 3.7c-.58.13-1.03.32-1.37.6a2.1 2.1 0 0 0-.74 1.36c-.02.12-.05.36-.05.72v26.81c0 1.18-.9 2.16-2.1 2.38l-5.27.86A6 6 0 0 0 0 42.57C0 45.63 2.6 48 5.64 48c.37 0 .74-.04 1.11-.1l1.82-.36a7.13 7.13 0 0 0 5.8-7.08V17.25c0-1.22.4-1.54 1.42-1.78 0 0 17.52-3.52 18.37-3.68.22-.04.43-.07.61-.07.78 0 1.17.4 1.17 1.36v15.47c0 1.18-.89 2.16-2.1 2.39l-4.86.95c-3.1.55-5.35 2.97-5.35 5.77 0 3.04 2.8 5.4 6.08 5.4.4 0 .8-.03 1.2-.1l1.96-.35c4.23-1.2 5.13-5.07 5.13-7.75v-33C38 .74 37.41 0 36.36 0h-.2z" fill="currentColor"/>
  </symbol>

  <symbol id="apple-logo" viewBox="0 0 20 24">
    <path d="M14.5498331,5.79055576 L14.8667346,5.79824073 C15.6519271,5.85753895 17.9167852,6.09354452 19.3663083,8.18658259 C19.2454992,8.2761902 16.6786385,9.72115188 16.7091378,12.7589876 C16.7390911,16.3870553 19.9696682,17.5970079 20,17.6265086 C19.9696682,17.7155832 19.487499,19.3381578 18.3096405,21.0185738 C17.2829229,22.4941235 16.2256873,23.9394547 14.5345925,23.9689736 C12.9038728,23.9984743 12.3599697,23.0246181 10.4887983,23.0246181 C8.61624942,23.0246181 8.01243658,23.9394547 6.47193668,23.9984743 C4.84148068,24.056773 3.60409403,22.4336653 2.57735781,20.9595512 C0.463094554,17.9799264 -1.13731196,12.5531248 1.03685791,8.89465382 C2.09390733,7.06587112 4.02671959,5.91602544 6.10974825,5.88615523 C7.71015477,5.85753895 9.18984525,6.91939744 10.1566562,6.91939744 C11.1229398,6.91939744 12.8433271,5.68057112 14.8667346,5.79824073 Z M14.882569,-1.50990331e-14 C15.034318,1.42063421 14.4589476,2.81085604 13.6110595,3.84623659 C12.7325883,4.85257077 11.3405768,5.6504798 9.94727779,5.53248307 C9.76560653,4.17140151 10.4624841,2.72297789 11.2498451,1.83563692 C12.1267465,0.799444643 13.6413789,0.0602553239 14.882569,-1.50990331e-14 Z" fill="currentColor"/>
  </symbol>

  <symbol id="icon-lyrics" viewBox="0 0 18 18">
  <path
    d="m9.67 13.982-2.43 2.474c-.472.471-.79.675-1.145.675-.479 0-.623-.314-.623-1.012v-2.137H5.26c-1.406 0-1.915-.146-2.429-.42a2.877 2.877 0 0 1-1.192-1.192c-.274-.514-.421-1.024-.421-2.429V6.464c0-1.405.147-1.915.421-2.428a2.872 2.872 0 0 1 1.192-1.192c.514-.275 1.023-.421 2.429-.421h7.68c1.406 0 1.915.146 2.429.421a2.86 2.86 0 0 1 1.192 1.192c.274.513.421 1.023.421 2.428v3.477c0 1.405-.147 1.915-.421 2.429a2.866 2.866 0 0 1-1.192 1.192c-.514.274-1.023.42-2.429.42H9.67Zm-.974-.957c.257-.261.608-.408.974-.408h3.27c1.076 0 1.426-.068 1.785-.26.276-.147.484-.356.631-.632.192-.358.26-.709.26-1.784V6.464c0-1.075-.068-1.426-.26-1.784a1.49 1.49 0 0 0-.631-.631c-.359-.192-.709-.26-1.785-.26H5.26c-1.075 0-1.425.068-1.785.26a1.5 1.5 0 0 0-.631.631c-.192.358-.26.709-.26 1.784v3.477c0 1.075.068 1.426.26 1.784.148.276.356.485.631.632.36.192.71.26 1.785.26h.212c.754 0 1.365.611 1.365 1.365v.934l1.859-1.891ZM5.422 8.01c0-.821.67-1.383 1.554-1.383.976 0 1.599.726 1.599 1.634 0 1.73-1.46 2.084-2.242 2.084-.222 0-.381-.148-.381-.329 0-.173.084-.294.372-.364.502-.12 1.005.028 1.274-.491h-.056c-.185.208-.483.242-.771.242-.837 0-1.349-.614-1.349-1.393Zm4.204 0c0-.821.669-1.383 1.553-1.383.976 0 1.6.726 1.6 1.634 0 1.73-1.46 2.084-2.242 2.084-.223 0-.381-.148-.381-.329 0-.173.084-.294.372-.364.502-.12 1.004.028 1.274-.491h-.056c-.186.208-.483.242-.772.242-.837 0-1.348-.614-1.348-1.393Z"
    fill="currentColor"
   ></path>
</symbol> 

  <symbol id="icon-up-next" viewBox="0 0 18 18">
    <path d="M2.634 5.537a.906.906 0 1 0 0-1.813.906.906 0 1 0 0 1.813zm3.192-.325h9.865a.576.576 0 0 0 .585-.578.578.578 0 0 0-.585-.585H5.826a.574.574 0 0 0-.585.585c0 .325.253.578.585.578zM2.634 9.906c.506 0 .91-.404.91-.91a.906.906 0 0 0-.91-.91.906.906 0 0 0-.91.91c0 .506.405.91.91.91zm3.192-.325h9.865a.582.582 0 1 0 0-1.162H5.826a.572.572 0 0 0-.585.577c0 .325.253.585.585.585zm-3.192 4.694a.91.91 0 1 0-.001-1.82.91.91 0 0 0 0 1.82zm3.192-.332h9.865a.576.576 0 0 0 .585-.577.578.578 0 0 0-.585-.585H5.826a.574.574 0 0 0-.585.585c0 .324.253.577.585.577z" fill="currentColor"/>
  </symbol>

<symbol id="icon-volume" viewBox="0 0 64 64">
  <g transform="translate(2,11.149)">
    <path d="m23.477 39.911c1.4129 0 2.431-1.0389 2.431-2.431v-33.141c0-1.3921-1.0181-2.5349-2.4726-2.5349-1.0181 0-1.7038 0.43634-2.805 1.4752l-9.2046 8.6644c-0.14545 0.12464-0.31166 0.18698-0.51945 0.18698h-6.2126c-2.9297 0-4.5088 1.5999-4.5088 4.7374v8.0411c0 3.1167 1.5791 4.7166 4.5088 4.7166h6.2126c0.20779 0 0.374 0.06234 0.51945 0.18698l9.2046 8.7475c0.99732 0.93501 1.8285 1.3506 2.8466 1.3506z" fill="currentColor"></path>
    <path class="chrome-volume__wave chrome-volume__wave-1" d="m34.864 29.959c0.70647 0.49868 1.7246 0.35323 2.3271-0.47787 1.6205-2.1817 2.5971-5.3815 2.5971-8.6436 0-3.2621-0.9766-6.4411-2.5971-8.6436-0.60255-0.83111-1.5999-0.97655-2.3271-0.49868-0.89345 0.62336-1.0181 1.683-0.35319 2.5765 1.2051 1.6207 1.9323 4.0932 1.9323 6.5658 0 2.4726-0.76881 4.9451-1.9531 6.5866-0.62332 0.89345-0.51945 1.9116 0.374 2.5349z" fill="currentColor"></path>
    <path class="chrome-volume__wave chrome-volume__wave-2" d="m43.154 35.569c0.81021 0.54023 1.8077 0.33245 2.3894-0.49867 2.7426-3.8231 4.3426-8.9137 4.3426-14.233 0-5.3399-1.5583-10.451-4.3426-14.254-0.60255-0.81034-1.5791-1.0181-2.3894-0.47787-0.78979 0.54021-0.91447 1.5583-0.29106 2.4518 2.2647 3.3245 3.6779 7.6878 3.6779 12.28s-1.3923 8.9969-3.6779 12.28c-0.60255 0.89345-0.49872 1.9116 0.29106 2.4518z" fill="currentColor"></path>
    <path class="chrome-volume__wave chrome-volume__wave-3 chrome-volume__wave-hidden" d="m51.527 41.241c0.76894 0.51945 1.7872 0.31166 2.3898-0.54021 3.8438-5.423 6.0255-12.446 6.0255-19.864s-2.2443-14.42-6.0255-19.864c-0.60255-0.87268-1.6209-1.0805-2.3898-0.54021-0.78936 0.56098-0.91404 1.5791-0.31149 2.4518 3.3451 4.9244 5.423 11.241 5.423 17.952 0 6.7113-1.9945 13.132-5.423 17.952-0.60255 0.87268-0.47787 1.8908 0.31149 2.4518z" fill="currentColor"></path>
  </g>
</symbol>

<symbol id="apple-music-logo" viewBox="0 0 83 20" ><path d="M34.752 19.746V6.243h-.088l-5.433 13.503h-2.074L21.711 6.243h-.087v13.503h-2.548V1.399h3.235l5.833 14.621h.1l5.82-14.62h3.248v18.347h-2.56zm16.649 0h-2.586v-2.263h-.062c-.725 1.602-2.061 2.504-4.072 2.504-2.86 0-4.61-1.894-4.61-4.958V6.37h2.698v8.125c0 2.034.95 3.127 2.81 3.127 1.95 0 3.124-1.373 3.124-3.458V6.37H51.4v13.376zm7.394-13.618c3.06 0 5.046 1.73 5.134 4.196h-2.536c-.15-1.296-1.087-2.11-2.598-2.11-1.462 0-2.436.724-2.436 1.793 0 .839.6 1.41 2.023 1.741l2.136.496c2.686.636 3.71 1.704 3.71 3.636 0 2.442-2.236 4.12-5.333 4.12-3.285 0-5.26-1.64-5.509-4.183h2.673c.25 1.398 1.187 2.085 2.836 2.085 1.623 0 2.623-.687 2.623-1.78 0-.865-.487-1.373-1.924-1.704l-2.136-.508c-2.498-.585-3.735-1.806-3.735-3.75 0-2.391 2.049-4.032 5.072-4.032zM66.1 2.836c0-.878.7-1.577 1.561-1.577.862 0 1.55.7 1.55 1.577 0 .864-.688 1.576-1.55 1.576a1.573 1.573 0 0 1-1.56-1.576zm.212 3.534h2.698v13.376h-2.698zm14.089 4.603c-.275-1.424-1.324-2.556-3.085-2.556-2.086 0-3.46 1.767-3.46 4.64 0 2.938 1.386 4.642 3.485 4.642 1.66 0 2.748-.928 3.06-2.48H83C82.713 18.067 80.477 20 77.317 20c-3.76 0-6.208-2.62-6.208-6.942 0-4.247 2.448-6.93 6.183-6.93 3.385 0 5.446 2.213 5.683 4.845h-2.573zM10.824 3.189c-.698.834-1.805 1.496-2.913 1.398-.145-1.128.41-2.33 1.036-3.065C9.644.662 10.848.05 11.835 0c.121 1.178-.336 2.33-1.01 3.19zm.999 1.619c.624.049 2.425.244 3.578 1.98-.096.074-2.137 1.272-2.113 3.79.024 3.01 2.593 4.012 2.617 4.037-.024.074-.407 1.419-1.344 2.812-.817 1.224-1.657 2.422-3.002 2.447-1.297.024-1.73-.783-3.218-.783-1.489 0-1.97.758-3.194.807-1.297.048-2.28-1.297-3.097-2.52C.368 14.908-.904 10.408.825 7.375c.84-1.516 2.377-2.47 4.034-2.495 1.273-.023 2.45.857 3.218.857.769 0 2.137-1.027 3.746-.93z" fill="currentColor"></path></symbol>

<symbol id="icon-sidebar" width="24" height="24" viewBox="0 0 24 24"><path d="M13.079 19.712c1.076 0 2.688-.79 2.688-2.922v-6.702c0-.388.073-.468.417-.542l3.347-.732a.48.48 0 0 0 .403-.483V5.577c0-.388-.315-.637-.688-.564l-3.765.82c-.469.103-.725.359-.725.77l.015 8.144c.036.359-.132.593-.455.659l-1.164.242c-1.465.307-2.153 1.054-2.153 2.16 0 1.12.864 1.904 2.08 1.904zM12.046 8.675a.503.503 0 0 0 .498-.498.497.497 0 0 0-.498-.49H5.498a.492.492 0 0 0-.498.49.5.5 0 0 0 .498.498h6.548zm0 2.607a.5.5 0 0 0 .498-.505.49.49 0 0 0-.498-.483H5.498a.486.486 0 0 0-.498.483c0 .278.212.505.498.505h6.548zm0 2.608a.494.494 0 1 0 0-.989H5.498a.492.492 0 0 0-.498.49.49.49 0 0 0 .498.499h6.548z" fill="currentColor"></path></symbol>

</svg>
